<svg xmlns="http://www.w3.org/2000/svg" viewBox="0 0 340 80" width="340" height="80" role="img" aria-label="Whitelistarr">
  <title>Whitelistarr</title>
  <defs>
    <linearGradient id="wl-gold" x1="14" y1="14" x2="66" y2="66" gradientUnits="userSpaceOnUse">
      <stop offset="0" stop-color="#f4b41a"/>
      <stop offset="1" stop-color="#e5a00d"/>
    </linearGradient>
  </defs>
  <g transform="translate(12 12) scale(2.33)">
    <path fill="url(#wl-gold)"
          d="M21.41 11.58l-9-9C12.05 2.22 11.55 2 11 2H4c-1.1 0-2 .9-2 2v7c0 .55.22 1.05.59 1.42l9 9c.36.36.86.58 1.41.58s1.05-.22 1.41-.59l7-7c.37-.36.59-.86.59-1.41s-.23-1.06-.59-1.42z"/>
    <circle cx="6.5" cy="6.5" r="1.6" fill="#0d1014"/>
    <path d="M8.6 12.3l2.7 2.7 5-5" fill="none" stroke="#0d1014" stroke-width="1.9"
          stroke-linecap="round" stroke-linejoin="round"/>
  </g>
  <text x="86" y="52" font-family="-apple-system, BlinkMacSystemFont, 'Segoe UI', Roboto, Helvetica, Arial, sans-serif"
        font-size="38" font-weight="700" letter-spacing="-0.5">
    <tspan fill="#e5a00d">Whitelist</tspan><tspan fill="#9aa4b2">arr</tspan>
  </text>
</svg>
